<?xml version="1.0" encoding="UTF-8" standalone="no"?>
<svg width="180" height="60" viewBox="0 0 180 60" fill="none" xmlns="http://www.w3.org/2000/svg">
  <g>
    <!-- Circle Logo -->
    <circle cx="25" cy="30" r="20" fill="#0085FF"/>
    <path d="M15 27C15 25.3431 16.3431 24 18 24H32C33.6569 24 35 25.3431 35 27V37C35 38.6569 33.6569 40 32 40H18C16.3431 40 15 38.6569 15 37V27Z" fill="white"/>
    <path d="M20 30H30V36H20V30Z" fill="#0085FF"/>
    <path d="M25 16V20" stroke="white" stroke-width="3" stroke-linecap="round"/>
    <path d="M21 18H29" stroke="white" stroke-width="3" stroke-linecap="round"/>
    
    <!-- Text -->
    <g fill="#0085FF">
      <!-- OnCall -->
      <path d="M52 22.5C52 19.7386 54.2386 17.5 57 17.5C59.7614 17.5 62 19.7386 62 22.5V31.5C62 34.2614 59.7614 36.5 57 36.5C54.2386 36.5 52 34.2614 52 31.5V22.5ZM56 22.5V31.5C56 32.0523 56.4477 32.5 57 32.5C57.5523 32.5 58 32.0523 58 31.5V22.5C58 21.9477 57.5523 21.5 57 21.5C56.4477 21.5 56 21.9477 56 22.5Z"/>
      <path d="M65 18H69V28C69 29.6569 70.3431 31 72 31C73.6569 31 75 29.6569 75 28V18H79V28C79 31.866 75.866 35 72 35C68.134 35 65 31.866 65 28V18Z"/>
      <path d="M82 28C82 31.866 84.2386 36 88 36C90.7614 36 93 34.2614 93 31.5V30.5H88V26.5H97V31.5C97 36.4706 93.0899 40 88 40C82.9101 40 78 35.4706 78 28C78 20.5294 82.9101 16 88 16C93.0899 16 97 19.5294 97 25H93C93 21.5 90.7614 20 88 20C84.2386 20 82 24.134 82 28Z"/>
      <path d="M99 18H103V28C103 29.6569 104.343 31 106 31C107.657 31 109 29.6569 109 28V18H113V28C113 31.866 109.866 35 106 35C102.134 35 99 31.866 99 28V18Z"/>
      <path d="M115 18H119V36H115V18Z"/>
      <path d="M121 18H125V36H121V18Z"/>
      
      <!-- Clinic -->
      <path d="M52 46.5C52 43.7386 54.2386 41.5 57 41.5C59.7614 41.5 62 43.7386 62 46.5V55.5C62 58.2614 59.7614 60.5 57 60.5C54.2386 60.5 52 58.2614 52 55.5V46.5ZM56 46.5V55.5C56 56.0523 56.4477 56.5 57 56.5C57.5523 56.5 58 56.0523 58 55.5V46.5C58 45.9477 57.5523 45.5 57 45.5C56.4477 45.5 56 45.9477 56 46.5Z"/>
      <path d="M65 42H75V46H69V47H74V51H69V52H75V56H65V42Z"/>
      <path d="M77 42H81V60H77V42Z"/>
      <path d="M83 42H87V46.5H88V42H92V60H88V50.5H87V60H83V42Z"/>
      <path d="M94 42H98V47H99V42H103V60H99V51H98V60H94V42Z"/>
      <path d="M105 42H115V46H109V47H114V51H109V52H115V56H105V42Z"/>
    </g>
  </g>
</svg>