<svg width="200" height="65" viewBox="0 0 200 65" fill="none" xmlns="http://www.w3.org/2000/svg">
  <!-- Símbolo médico/cruz -->
  <circle cx="32.5" cy="32.5" r="24" fill="#2563EB" />
  <path d="M32.5 18.5V46.5M18.5 32.5H46.5" stroke="white" stroke-width="6" stroke-linecap="round" />
  
  <!-- Texto "OnCall" -->
  <path d="M75.488 22.416C79.264 22.416 82.384 23.696 84.848 26.256C87.312 28.816 88.544 32.016 88.544 35.856C88.544 39.696 87.312 42.896 84.848 45.456C82.384 48.016 79.264 49.296 75.488 49.296C73.088 49.296 70.944 48.704 69.056 47.52C67.232 46.336 65.856 44.736 64.928 42.72V60H58.4V22.896H64.928V29.472C65.856 27.456 67.232 25.856 69.056 24.672C70.944 23.168 73.088 22.416 75.488 22.416ZM74.048 43.344C76.384 43.344 78.24 42.576 79.616 41.04C81.056 39.44 81.776 37.456 81.776 35.088C81.776 32.72 81.056 30.752 79.616 29.184C78.24 27.552 76.384 26.736 74.048 26.736C71.712 26.736 69.84 27.552 68.464 29.184C67.088 30.752 66.4 32.72 66.4 35.088C66.4 37.456 67.088 39.44 68.464 41.04C69.84 42.576 71.712 43.344 74.048 43.344Z" fill="#111827" />
  <path d="M99.2 49.296C96.928 49.296 95.024 48.624 93.488 47.28C91.952 45.936 91.184 44.208 91.184 42.096C91.184 39.984 92 38.272 93.632 36.96C95.264 35.648 97.44 34.992 100.16 34.992H107.216V34.32C107.216 32.848 106.736 31.76 105.776 31.056C104.816 30.352 103.552 30 101.984 30C100.416 30 99.12 30.288 98.096 30.864C97.072 31.44 96.4 32.352 96.08 33.6H89.744C90.224 31.072 91.456 29.056 93.44 27.552C95.488 26.048 98.144 25.296 101.408 25.296C104.672 25.296 107.344 26.112 109.424 27.744C111.504 29.376 112.544 31.6 112.544 34.416V48.816H107.12V45.12C106.352 46.24 105.264 47.168 103.856 47.904C102.448 48.832 100.896 49.296 99.2 49.296ZM100.592 44.928C102.592 44.928 104.16 44.272 105.296 42.96C106.496 41.648 107.136 40.016 107.216 38.064V38.016H100.784C99.12 38.016 97.952 38.368 97.28 39.072C96.672 39.776 96.368 40.576 96.368 41.472C96.368 42.368 96.688 43.104 97.328 43.68C97.968 44.512 99.056 44.928 100.592 44.928Z" fill="#111827" />
  <path d="M127.28 25.296C130.224 25.296 132.544 26.224 134.24 28.08C135.936 29.936 136.784 32.608 136.784 36.096V48.816H131.456V36.768C131.456 35.168 131.008 33.808 130.112 32.688C129.216 31.568 127.968 31.008 126.368 31.008C124.832 31.008 123.568 31.52 122.576 32.544C121.584 33.568 121.088 35.008 121.088 36.864V48.816H115.76V25.776H121.088V29.472C121.856 28.224 122.928 27.184 124.304 26.352C125.68 25.648 127.312 25.296 129.2 25.296H127.28Z" fill="#111827" />
  <path d="M146.224 25.776H151.552V48.816H146.224V25.776ZM148.896 21.6C147.6 21.6 146.56 21.232 145.776 20.496C144.992 19.76 144.6 18.752 144.6 17.472C144.6 16.192 144.992 15.184 145.776 14.448C146.56 13.712 147.6 13.344 148.896 13.344C150.192 13.344 151.232 13.712 152.016 14.448C152.8 15.184 153.192 16.192 153.192 17.472C153.192 18.752 152.8 19.76 152.016 20.496C151.232 21.232 150.192 21.6 148.896 21.6Z" fill="#111827" />
  
  <!-- Texto "Clinic" -->
  <path d="M84.736 52.352C86.96 52.352 88.744 52.968 90.088 54.2C91.432 55.4 92.104 57.128 92.104 59.384C92.104 61.64 91.432 63.384 90.088 64.616C88.744 65.816 86.96 66.416 84.736 66.416C82.512 66.416 80.728 65.816 79.384 64.616C78.04 63.384 77.368 61.64 77.368 59.384C77.368 57.128 78.04 55.4 79.384 54.2C80.728 52.968 82.512 52.352 84.736 52.352ZM84.736 55.592C83.6 55.592 82.712 55.944 82.072 56.648C81.432 57.32 81.112 58.232 81.112 59.384C81.112 60.536 81.432 61.464 82.072 62.168C82.712 62.84 83.6 63.176 84.736 63.176C85.872 63.176 86.76 62.84 87.4 62.168C88.04 61.464 88.36 60.536 88.36 59.384C88.36 58.232 88.04 57.32 87.4 56.648C86.76 55.944 85.872 55.592 84.736 55.592Z" fill="#2563EB" />
  <path d="M94.0395 52.784H97.6875V66H94.0395V52.784Z" fill="#2563EB" />
  <path d="M105.431 63.32C106.887 63.32 108.007 62.44 108.791 60.68H112.391C111.991 62.136 111.239 63.288 110.135 64.136C109.031 65.656 107.447 66.416 105.383 66.416C103.319 66.416 101.607 65.8 100.247 64.568C98.887 63.336 98.2075 61.608 98.2075 59.384C98.2075 57.16 98.887 55.432 100.247 54.2C101.607 52.968 103.319 52.352 105.383 52.352C107.447 52.352 109.031 52.968 110.135 54.2C111.239 55.432 111.991 57.16 112.391 59.384H98.6875C98.9195 60.648 99.4555 61.608 100.295 62.264C101.167 62.968 102.215 63.32 103.439 63.32H105.431Z" fill="#2563EB" />
  <path d="M117.834 52.784H121.29V55.16C121.642 54.52 122.122 54.008 122.73 53.624C123.338 53.208 124.138 53 125.13 53H126.73V56.36H124.114C123.026 56.36 122.186 56.616 121.594 57.128C121.034 57.64 120.754 58.472 120.754 59.624V66H117.106V52.784H117.834Z" fill="#2563EB" />
  <path d="M132.399 52.352C134.495 52.352 136.095 52.968 137.199 54.2C138.303 55.4 138.855 57.128 138.855 59.384C138.855 61.64 138.303 63.384 137.199 64.616C136.095 65.816 134.495 66.416 132.399 66.416C130.303 66.416 128.703 65.816 127.599 64.616C126.495 63.384 125.943 61.64 125.943 59.384C125.943 57.128 126.495 55.4 127.599 54.2C128.703 52.968 130.303 52.352 132.399 52.352ZM132.399 55.592C131.263 55.592 130.375 55.944 129.735 56.648C129.095 57.32 128.775 58.232 128.775 59.384C128.775 60.536 129.095 61.464 129.735 62.168C130.375 62.84 131.263 63.176 132.399 63.176C133.535 63.176 134.423 62.84 135.063 62.168C135.703 61.464 136.023 60.536 136.023 59.384C136.023 58.232 135.703 57.32 135.063 56.648C134.423 55.944 133.535 55.592 132.399 55.592Z" fill="#2563EB" />
</svg>