<?xml version="1.0" encoding="UTF-8"?>
<svg width="180" height="180" viewBox="0 0 180 180" version="1.1" xmlns="http://www.w3.org/2000/svg">
    <rect width="180" height="180" fill="#1D7EFC" rx="45" ry="45"/>
    <g fill="#FFFFFF">
        <path d="M90 25C59.8 25 35.2 49.6 35.2 79.8C35.2 119.7 90 155 90 155C90 155 144.8 119.7 144.8 79.8C144.8 49.6 120.2 25 90 25ZM90 59.2C94.3 59.2 98.2 60.7 101.1 63.3L90 74.3L78.9 63.3C81.8 60.7 85.7 59.2 90 59.2ZM66.5 75.7L77.6 86.8L66.5 97.8C63.9 94.9 62.4 91 62.4 86.8C62.4 82.5 63.9 78.6 66.5 75.7ZM90 114.3C85.7 114.3 81.8 112.8 78.9 110.2L90 99.2L101.1 110.2C98.2 112.8 94.3 114.3 90 114.3ZM113.5 97.8L102.4 86.8L113.5 75.7C116.1 78.6 117.6 82.5 117.6 86.8C117.6 91 116.1 94.9 113.5 97.8Z" />
    </g>
</svg>