<?xml version="1.0" encoding="UTF-8" standalone="no"?>
<svg width="600" height="300" viewBox="0 0 600 300" xmlns="http://www.w3.org/2000/svg">
  <g fill="none" stroke="white" stroke-width="4">
    <!-- Estetoscopio estilizado -->
    <path d="M120 85C85 85 60 120 60 155C60 190 85 220 130 220C165 220 175 195 175 155" />
    <path d="M175 155C175 120 200 85 235 85" />
    <path d="M130 220L130 270" />
    <circle cx="130" cy="285" r="8" />
    
    <!-- Texto "OnCall" -->
    <path d="M265 100C290 100 310 110 325 130C340 150 345 175 345 200C345 225 340 250 325 270C310 290 290 300 265 300C240 300 220 290 205 270C190 250 185 225 185 200C185 175 190 150 205 130C220 110 240 100 265 100Z" />
    <path d="M400 110V220H380V195C375 205 368 213 358 218C348 223 338 225 328 225V205C340 205 350 200 358 190C366 180 370 168 370 155V110H400Z" />
    <path d="M485 150C488 158 490 168 490 178C490 185 489 192 487 198C485 204 483 210 479 215C475 220 470 224 464 227C458 230 450 232 442 232C434 232 427 230 421 227C415 224 410 220 406 215C402 210 400 204 398 198C396 192 395 185 395 178C395 168 397 158 400 150C403 142 408 135 414 129C420 123 428 120 438 120C448 120 456 123 462 129C468 135 472 142 475 150H485Z" />
    <path d="M535 110C538 110 541 110 544 111C547 112 549 113 551 114C553 115 555 116 556 117L548 133C546 131 544 130 541 129C538 128 535 127 531 127C526 127 522 128 518 130C514 132 511 135 509 139C507 143 506 147 506 152V220H480V110H505V125C508 118 513 112 520 108C527 104 535 102 545 102L535 110Z" />
    <path d="M565 110H590V220H565V110Z" />
    <path d="M600 110H625V220H600V110Z" />
    
    <!-- Texto "Clinic" -->
    <path d="M265 215C290 215 310 225 325 245C340 265 345 290 345 315C345 340 340 365 325 385C310 405 290 415 265 415C240 415 220 405 205 385C190 365 185 340 185 315C185 290 190 265 205 245C220 225 240 215 265 215Z" />
    <path d="M375 225H400V335H375V225Z" />
    <path d="M408 225H433V245C438 238 444 232 452 227C460 222 470 220 482 220V240C470 240 460 243 452 250C444 257 440 266 440 280V335H415V225H408Z" />
    <path d="M490 225H515V335H490V225Z" />
    <path d="M565 225V335H540V320C535 325 528 329 520 332C512 335 505 336 495 336C485 336 475 333 465 327C455 321 450 310 450 295V225H475V290C475 298 477 305 482 310C487 315 494 318 502 318C512 318 520 315 527 310C534 305 537 297 537 287V225H565Z" />
  </g>
</svg>