<?xml version="1.0" encoding="UTF-8"?>
<svg width="400" height="150" viewBox="0 0 400 150" version="1.1" xmlns="http://www.w3.org/2000/svg">
    <g>
        <!-- Logo Icon -->
        <g fill="#1D7EFC" transform="translate(0, 0) scale(0.75)">
            <path d="M100 0C60.8 0 29.2 31.6 29.2 70.8C29.2 117.7 100 200 100 200C100 200 170.8 117.7 170.8 70.8C170.8 31.6 139.2 0 100 0ZM100 46.2C104.8 46.2 109.2 47.7 113.1 50.8L100 63.8L86.9 50.8C90.8 47.7 95.2 46.2 100 46.2ZM70 67.7L83.1 80.8L70 93.8C66.9 89.9 65.4 85.5 65.4 80.8C65.4 76 66.9 71.5 70 67.7ZM100 115.4C95.2 115.4 90.8 113.8 86.9 110.8L100 97.7L113.1 110.8C109.2 113.8 104.8 115.4 100 115.4ZM130 93.8L116.9 80.8L130 67.7C133.1 71.5 134.6 76 134.6 80.8C134.6 85.5 133.1 89.9 130 93.8Z" />
        </g>
        
        <!-- Text: OnCall -->
        <g fill="#1D1D1D" transform="translate(160, 45)">
            <path d="M31.3 1.3C41.7 1.3 50.1 9.7 50.1 20.1C50.1 30.5 41.7 39 31.3 39C20.9 39 12.4 30.5 12.4 20.1C12.4 9.7 20.9 1.3 31.3 1.3ZM31.3 7.3C24.2 7.3 18.4 13.1 18.4 20.1C18.4 27.1 24.2 32.9 31.3 32.9C38.3 32.9 44.1 27.1 44.1 20.1C44.1 13.1 38.3 7.3 31.3 7.3Z" />
            <path d="M62.1 1.9H68.1V33H89.2V39H62.1V1.9Z" />
            <path d="M90.3 19.9C90.3 9.2 98.8 0.7 109.5 0.7C120.2 0.7 128.7 9.2 128.7 19.9C128.7 30.6 120.2 39.1 109.5 39.1C98.8 39.1 90.3 30.6 90.3 19.9ZM122.7 19.9C122.7 12.5 116.9 6.7 109.5 6.7C102.1 6.7 96.3 12.5 96.3 19.9C96.3 27.3 102.1 33.1 109.5 33.1C116.9 33.1 122.7 27.3 122.7 19.9Z" />
            <path d="M136.5 1.9H142.5V16.6H160.5V1.9H166.5V39H160.5V22.6H142.5V39H136.5V1.9Z" />
            <path d="M176.4 1.9H182.4V39H176.4V1.9Z" />
        </g>
        
        <!-- Text: Clinic -->
        <g fill="#1D1D1D" transform="translate(160, 100)">
            <path d="M31.3 1.3C41.7 1.3 50.1 9.7 50.1 20.1C50.1 30.5 41.7 39 31.3 39C20.9 39 12.4 30.5 12.4 20.1C12.4 9.7 20.9 1.3 31.3 1.3ZM31.3 7.3C24.2 7.3 18.4 13.1 18.4 20.1C18.4 27.1 24.2 32.9 31.3 32.9C38.3 32.9 44.1 27.1 44.1 20.1C44.1 13.1 38.3 7.3 31.3 7.3Z" />
            <path d="M62.1 1.9H68.1V39H62.1V1.9Z" />
            <path d="M78.8 1.9H84.8V33H105.9V39H78.8V1.9Z" />
            <path d="M114.4 1.9H120.4V16.6H138.4V1.9H144.4V39H138.4V22.6H120.4V39H114.4V1.9Z" />
            <path d="M154.3 1.9H160.3V39H154.3V1.9Z" />
            <path d="M171.3 1.9C180.1 1.9 187.3 9.1 187.3 17.9C187.3 26.7 180.1 33.9 171.3 33.9H164.3V39H158.3V1.9H171.3ZM171.3 27.9C176.8 27.9 181.3 23.4 181.3 17.9C181.3 12.4 176.8 7.9 171.3 7.9H164.3V27.9H171.3Z" />
        </g>
    </g>
</svg>