<?xml version="1.0" encoding="UTF-8" standalone="no"?>
<svg width="200" height="80" viewBox="0 0 200 80" xmlns="http://www.w3.org/2000/svg">
  <!-- Marker con cruz médica -->
  <g>
    <path d="M42 15C29.85 15 20 24.85 20 37C20 49.15 31.5 70 42 70C52.5 70 64 49.15 64 37C64 24.85 54.15 15 42 15Z" fill="#0B84F3"/>
    <path d="M42 28V46M33 37H51" stroke="white" stroke-width="4" stroke-linecap="round"/>
  </g>
  
  <!-- Texto "OnCall" -->
  <g fill="#111827">
    <path d="M77.58 25.67C81.94 25.67 85.31 27.07 87.69 29.88C90.07 32.65 91.27 36.47 91.27 41.33C91.27 46.19 90.07 50.03 87.69 52.84C85.31 55.61 81.94 57 77.58 57C73.22 57 69.85 55.61 67.47 52.84C65.09 50.03 63.9 46.19 63.9 41.33C63.9 36.47 65.09 32.65 67.47 29.88C69.85 27.07 73.22 25.67 77.58 25.67ZM77.58 30.6C75.04 30.6 73.05 31.6 71.63 33.59C70.25 35.57 69.57 38.15 69.57 41.33C69.57 44.51 70.25 47.11 71.63 49.13C73.05 51.11 75.04 52.1 77.58 52.1C80.12 52.1 82.09 51.11 83.47 49.13C84.89 47.11 85.6 44.51 85.6 41.33C85.6 38.15 84.89 35.57 83.47 33.59C82.09 31.6 80.12 30.6 77.58 30.6Z"/>
    <path d="M107.83 26.67V57H102.25V49.64C100.91 51.85 99.16 53.54 97.01 54.67C94.89 55.78 92.52 56.33 89.89 56.33V50.9C93.16 50.9 95.85 49.77 97.96 47.5C100.07 45.2 101.13 42.1 101.13 38.21V26.67H107.83Z"/>
    <path d="M130.28 40.65C131.14 42.9 131.57 45.3 131.57 47.83C131.57 49.54 131.3 51.26 130.76 52.99C130.22 54.72 129.4 56.27 128.3 57.64C127.2 59 125.81 60.08 124.14 60.88C122.5 61.68 120.6 62.08 118.44 62.08C116.31 62.08 114.42 61.68 112.75 60.88C111.08 60.08 109.69 59 108.59 57.64C107.49 56.27 106.67 54.72 106.13 52.99C105.58 51.26 105.31 49.54 105.31 47.83C105.31 45.3 105.74 42.9 106.6 40.65C107.46 38.39 108.75 36.47 110.49 34.87C112.25 33.27 114.42 32.47 117 32.47C119.58 32.47 121.76 33.27 123.52 34.87C125.26 36.47 126.54 38.39 127.4 40.65H130.28ZM125.76 54.33C126.57 52.93 127.22 51.41 127.68 49.78C128.14 48.14 128.38 46.4 128.38 44.56C128.38 42.71 128.14 40.98 127.68 39.33C127.22 37.71 126.57 36.2 125.76 34.8C124.94 33.4 123.9 32.29 122.64 31.45C121.38 30.61 119.88 30.2 118.17 30.2C116.45 30.2 114.95 30.61 113.69 31.45C112.43 32.29 111.39 33.4 110.58 34.8C109.76 36.2 109.12 37.71 108.66 39.33C108.19 40.98 107.95 42.71 107.95 44.56C107.95 46.4 108.19 48.14 108.66 49.78C109.12 51.41 109.76 52.93 110.58 54.33C111.39 55.73 112.43 56.84 113.69 57.68C114.95 58.51 116.45 58.93 118.17 58.93C119.88 58.93 121.38 58.51 122.64 57.68C123.9 56.84 124.94 55.73 125.76 54.33Z"/>
    <path d="M148.8 26.67C149.51 26.67 150.2 26.73 150.86 26.84C151.53 26.95 152.14 27.12 152.71 27.34C153.27 27.56 153.7 27.78 153.99 28L152.25 32.84C151.77 32.53 151.16 32.27 150.41 32.08C149.66 31.88 148.78 31.77 147.8 31.77C146.46 31.77 145.3 32.04 144.33 32.59C143.35 33.13 142.61 33.9 142.12 34.88C141.62 35.86 141.38 37.03 141.38 38.38V57H135.68V26.67H141.38V31.84C142.1 30.01 143.27 28.58 144.89 27.55C146.51 26.53 148.49 26.01 150.8 26L148.8 26.67Z"/>
    <path d="M174.25 26.67V57H168.55V26.67H174.25Z"/>
    <path d="M177.39 26.67H183.09V57H177.39V26.67Z"/>
  </g>
  
  <!-- Texto "Clinic" -->
  <g fill="#111827">
    <path d="M80.58 61.67C84.94 61.67 88.31 63.07 90.69 65.88C93.07 68.65 94.27 72.47 94.27 77.33C94.27 82.19 93.07 86.03 90.69 88.84C88.31 91.61 84.94 93 80.58 93C76.22 93 72.85 91.61 70.47 88.84C68.09 86.03 66.9 82.19 66.9 77.33C66.9 72.47 68.09 68.65 70.47 65.88C72.85 63.07 76.22 61.67 80.58 61.67ZM80.58 66.6C78.04 66.6 76.05 67.6 74.63 69.59C73.25 71.57 72.57 74.15 72.57 77.33C72.57 80.51 73.25 83.11 74.63 85.13C76.05 87.11 78.04 88.1 80.58 88.1C83.12 88.1 85.09 87.11 86.47 85.13C87.89 83.11 88.6 80.51 88.6 77.33C88.6 74.15 87.89 71.57 86.47 69.59C85.09 67.6 83.12 66.6 80.58 66.6Z"/>
    <path d="M97.22 62.67H103V93H97.22V62.67Z"/>
    <path d="M109.51 62.67H115.31V68.43C116.49 66.36 118.1 64.71 120.14 63.5C122.18 62.28 124.62 61.67 127.48 61.67V67.93C124.26 67.93 121.59 68.84 119.48 70.67C117.36 72.5 116.31 75.04 116.31 78.32V93H110.51V62.67H109.51Z"/>
    <path d="M130.47 62.67H136.17V93H130.47V62.67Z"/>
    <path d="M158.73 62.67V93H153.03V88.5C151.69 90.1 150.1 91.34 148.28 92.24C146.46 93.13 144.48 93.58 142.33 93.58C139.29 93.58 136.6 92.69 134.26 90.92C131.96 89.14 130.81 86.17 130.81 82V62.67H136.51V80.83C136.51 83.13 137.14 84.95 138.38 86.25C139.63 87.55 141.33 88.21 143.5 88.21C146.04 88.21 148.08 87.4 149.61 85.79C151.14 84.17 151.9 81.97 151.9 79.17V62.67H158.73Z"/>
  </g>
</svg>