<?xml version="1.0" encoding="UTF-8"?>
<svg width="200" height="200" viewBox="0 0 200 200" version="1.1" xmlns="http://www.w3.org/2000/svg">
    <g fill="#1D7EFC">
        <path d="M100 0C60.8 0 29.2 31.6 29.2 70.8C29.2 117.7 100 200 100 200C100 200 170.8 117.7 170.8 70.8C170.8 31.6 139.2 0 100 0ZM100 46.2C104.8 46.2 109.2 47.7 113.1 50.8L100 63.8L86.9 50.8C90.8 47.7 95.2 46.2 100 46.2ZM70 67.7L83.1 80.8L70 93.8C66.9 89.9 65.4 85.5 65.4 80.8C65.4 76 66.9 71.5 70 67.7ZM100 115.4C95.2 115.4 90.8 113.8 86.9 110.8L100 97.7L113.1 110.8C109.2 113.8 104.8 115.4 100 115.4ZM130 93.8L116.9 80.8L130 67.7C133.1 71.5 134.6 76 134.6 80.8C134.6 85.5 133.1 89.9 130 93.8Z" />
    </g>
</svg>