<?xml version="1.0" encoding="UTF-8"?>
<svg width="32" height="32" viewBox="0 0 200 200" version="1.1" xmlns="http://www.w3.org/2000/svg">
    <rect width="200" height="200" fill="#FFFFFF" rx="40" ry="40"/>
    <g fill="#1D7EFC">
        <path d="M100 10C66.9 10 40.2 36.7 40.2 69.8C40.2 109.4 100 180 100 180C100 180 159.8 109.4 159.8 69.8C159.8 36.7 133.1 10 100 10ZM100 49.6C104.1 49.6 107.9 50.9 111.2 53.6L100 64.8L88.8 53.6C92.1 50.9 95.9 49.6 100 49.6ZM75.5 66.9L86.7 78.1L75.5 89.3C72.8 86 71.5 82.2 71.5 78.1C71.5 73.9 72.8 70.1 75.5 66.9ZM100 106.5C95.9 106.5 92.1 105.2 88.8 102.5L100 91.3L111.2 102.5C107.9 105.2 104.1 106.5 100 106.5ZM124.5 89.3L113.3 78.1L124.5 66.9C127.2 70.1 128.5 73.9 128.5 78.1C128.5 82.2 127.2 86 124.5 89.3Z" />
    </g>
</svg>